<svg width="170" height="42" viewBox="0 0 170 42" fill="none" xmlns="http://www.w3.org/2000/svg">
<circle cx="21" cy="21" r="21" fill="#FE8235"/>
<path d="M51.2 26H54.4V14.7L53.8 12.7H54.6L58.86 26H65.16V11.9H61.96V23.2L62.56 25.2H61.76L57.5 11.9H51.2V26ZM67.1766 26H70.3766V21.6L76.7766 21.2V18.36L70.3766 18.76V14.7H77.2366V11.9H67.1766V26ZM91.0473 11.9H78.6273V14.7H83.2473V26H86.4473V14.7H91.0473V11.9ZM98.4461 26H101.646V14.7L101.046 12.7H101.846L106.106 26H112.406V11.9H109.206V23.2L109.806 25.2H109.006L104.746 11.9H98.4461V26ZM114.423 26H124.483V23.2H117.623V20.34H123.483V17.54H117.623V14.7H124.483V11.9H114.423V26ZM125.673 26H129.353L133.153 20.58L136.973 26H140.653L135.873 19.34V18.54L140.653 11.9H136.973L133.153 17.3L129.353 11.9H125.673L130.433 18.54V19.34L125.673 26ZM141.659 20.76C141.659 24.28 143.839 26.2 148.019 26.2C152.199 26.2 154.399 24.28 154.399 20.76V11.9H151.199V19.34C151.199 21.86 150.959 23.4 148.019 23.4C145.079 23.4 144.859 21.86 144.859 19.34V11.9H141.659V20.76ZM168.62 22.12C168.62 19.18 164.64 18.06 162.04 17.18C159.78 16.42 159.44 16.18 159.44 15.54C159.44 14.82 160.34 14.5 161.78 14.5C163.52 14.5 164.84 14.98 164.84 16.7H168.04C168.04 13.9 166.1 11.7 161.78 11.7C158.14 11.7 156.24 13.02 156.24 15.42C156.24 18.18 158.66 18.98 161.64 19.98C163.7 20.68 165.42 21.14 165.42 22.16C165.42 22.92 164.74 23.4 162.68 23.4C159.88 23.4 158.8 22.72 158.8 20.56H155.6C155.6 24.12 157.5 26.2 162.58 26.2C166.92 26.2 168.62 24.54 168.62 22.12Z" fill="#FE8235"/>
<path d="M13.5164 28H16.7164V16.7L16.1164 14.7H16.9164L21.1764 28H27.4764V13.9H24.2764V25.2L24.8764 27.2H24.0764L19.8164 13.9H13.5164V28Z" fill="white"/>
</svg>
